<svg width="11" height="6" viewBox="0 0 11 6" fill="none" xmlns="http://www.w3.org/2000/svg">
<path fill-rule="evenodd" clip-rule="evenodd" d="M1.13807 0.195262C0.877722 -0.0650874 0.455612 -0.0650874 0.195262 0.195262C-0.0650874 0.455612 -0.0650874 0.877722 0.195262 1.13807L4.85561 5.79842C4.85767 5.80053 4.85975 5.80264 4.86185 5.80474C4.99254 5.93543 5.164 6.00052 5.33529 6C5.50525 5.9995 5.67506 5.93441 5.80474 5.80474C5.80682 5.80265 5.80889 5.80056 5.81094 5.79845L10.4713 1.13807C10.7317 0.877722 10.7317 0.455612 10.4713 0.195262C10.211 -0.0650874 9.78886 -0.0650874 9.52851 0.195262L5.33329 4.39048L1.13807 0.195262Z" fill="#2D3440"/>
</svg>
