<svg xmlns="http://www.w3.org/2000/svg" width="13" height="13" fill="none"><path fill="#2D3440" fill-rule="evenodd" d="M6.2086 1.3333c-2.6925 0-4.8753 2.1827-4.8753 4.8753 0 2.6925 2.1827 4.8752 4.8753 4.8752 2.6925 0 4.8752-2.1827 4.8752-4.8752 0-2.6925-2.1827-4.8753-4.8752-4.8753ZM0 6.2086C0 2.7796 2.7797 0 6.2086 0c3.4289 0 6.2085 2.7797 6.2085 6.2086 0 3.4289-2.7796 6.2085-6.2085 6.2085C2.7796 12.4171 0 9.6375 0 6.2086Zm6.2084-.667a.6667.6667 0 0 1 .6666.6667v2.2168a.6667.6667 0 0 1-1.3333 0V6.2083a.6667.6667 0 0 1 .6667-.6667Zm0-2.2167a.6667.6667 0 0 0 0 1.3333h.0058a.6667.6667 0 1 0 0-1.3333h-.0058Z" clip-rule="evenodd"/></svg>